<svg xmlns="http://www.w3.org/2000/svg" viewBox="0 0 297 297"><path d="M187.852 32.188c-42.917-42.917-112.749-42.916-155.665 0-42.916 42.915-42.916 112.746-.001 155.663 42.919 42.919 112.75 42.917 155.665-.001 42.916-42.916 42.916-112.747.001-155.662zM110.02 205.917c-24.569 0-49.139-9.351-67.843-28.057-37.409-37.408-37.409-98.276 0-135.685 37.407-37.407 98.274-37.409 135.685 0 37.408 37.409 37.408 98.277 0 135.685-18.705 18.705-43.274 28.057-67.842 28.057zm184.833 56.722l-82.637-82.638c-.041-.041-.087-.072-.128-.111a123.956 123.956 0 0 1-32.197 32.197c.04.041.071.088.112.128l82.637 82.638a7.335 7.335 0 0 0 10.37 0l21.843-21.843a7.335 7.335 0 0 0 0-10.371z"/><path d="M140.668 136.262l-5.832-1.79-21.472 11.678a6.994 6.994 0 0 1-6.688 0l-21.474-11.678-5.832 1.79a17.418 17.418 0 0 0-11.855 16.523v28.099c12.459 7.499 27.049 11.818 42.65 11.818 15.481 0 29.963-4.258 42.358-11.651v-28.267c0-7.493-4.76-14.124-11.855-16.522zM110.02 62.51c-9.788 0-17.752 7.964-17.752 17.752s7.964 17.752 17.752 17.752 17.752-7.964 17.752-17.752-7.964-17.752-17.752-17.752z"/><path d="M110.165 27.036c-45.748 0-82.833 37.086-82.833 82.833 0 23.829 10.076 45.292 26.183 60.404v-17.488a31.403 31.403 0 0 1 21.66-29.881l8.733-2.68a7.002 7.002 0 0 1 5.397.543l20.714 11.265 20.712-11.265a7.006 7.006 0 0 1 5.398-.543l8.733 2.68.16.052a31.403 31.403 0 0 1 21.5 29.829v17.767c16.279-15.126 26.475-36.708 26.475-60.682.001-45.748-37.084-82.834-82.832-82.834zm-.145 84.978c-17.508 0-31.752-14.244-31.752-31.752S92.512 48.51 110.02 48.51s31.752 14.244 31.752 31.752-14.245 31.752-31.752 31.752z"/></svg>