<svg xmlns="http://www.w3.org/2000/svg" viewBox="0 0 297 297"><path d="M132.335 92.134a7.224 7.224 0 0 0-11.652 0l-38.401 52.401a7.223 7.223 0 0 0 5.826 11.492h15.788v121.714a7.222 7.222 0 0 0 7.222 7.223h30.78a7.223 7.223 0 0 0 7.223-7.223V156.027h15.787a7.224 7.224 0 0 0 5.826-11.492l-38.399-52.401z"/><path d="M51.448 134.986a7.224 7.224 0 0 0-11.652 0l-38.4 52.401a7.223 7.223 0 0 0 5.826 11.492H23.01v78.862a7.222 7.222 0 0 0 7.222 7.223h30.78a7.223 7.223 0 0 0 7.223-7.223v-78.862h15.788a7.223 7.223 0 0 0 5.826-11.492l-38.401-52.401zM242.71 75.737c17.563 0 31.85-14.288 31.85-31.851s-14.288-31.85-31.85-31.85-31.851 14.288-31.851 31.85 14.289 31.851 31.851 31.851zm34.983 15.435l-.053-.018-9.091-2.789a2.822 2.822 0 0 0-3.481 1.732l-19.115 52.447c-1.103 3.026-5.382 3.026-6.485 0l-19.115-52.447a2.822 2.822 0 0 0-2.65-1.858c-.274 0-9.911 2.912-9.911 2.912-11.612 3.869-19.371 14.635-19.371 26.807v55.481c0 .551.161 1.09.464 1.55l19.945 30.352v76.799a2.823 2.823 0 0 0 2.823 2.823h62.115a2.823 2.823 0 0 0 2.823-2.823v-76.799l19.945-30.352c.302-.46.464-.999.464-1.55v-55.627a28.034 28.034 0 0 0-19.307-26.64z"/><path d="M251.017 86.05c-.879-.957-2.163-1.439-3.462-1.439h-9.69c-1.299 0-2.583.482-3.462 1.439a4.495 4.495 0 0 0-.592 5.295l5.18 7.809-2.425 20.456 4.775 12.702c.466 1.277 2.272 1.277 2.738 0l4.775-12.702-2.425-20.456 5.18-7.809a4.493 4.493 0 0 0-.592-5.295z"/></svg>