<svg xmlns="http://www.w3.org/2000/svg" viewBox="0 0 297 297"><circle cx="259.875" cy="277.029" r="16.898"/><circle cx="259.875" cy="141.843" r="16.898"/><circle cx="259.875" cy="23.555" r="16.898"/><path d="M192.282 14.85a8.705 8.705 0 0 0-8.705 8.705v109.583h-8.193a8.705 8.705 0 0 0 0 17.41h8.193v126.481a8.705 8.705 0 0 0 8.705 8.705h37.6c-.804-2.765-1.244-5.684-1.244-8.705s.44-5.94 1.244-8.705h-28.895V150.548h28.895a31.126 31.126 0 0 1-1.244-8.705c0-3.021.44-5.94 1.244-8.705h-28.895V32.26h28.895a31.126 31.126 0 0 1-1.244-8.705c0-3.021.44-5.94 1.244-8.705h-37.6zM79.305 69.319c19.112 0 34.66-15.548 34.66-34.66S98.416 0 79.305 0s-34.66 15.548-34.66 34.66 15.548 34.659 34.66 34.659zm38.068 16.797l-.058-.019-9.892-3.035a3.071 3.071 0 0 0-3.788 1.885L82.833 142.02c-1.2 3.293-5.857 3.293-7.057 0L54.975 84.946a3.071 3.071 0 0 0-3.784-1.886l-9.884 3.032c-12.637 4.211-21.08 15.925-21.08 29.172v60.375c0 .599.175 1.185.504 1.686l21.705 33.029v83.572a3.072 3.072 0 0 0 3.072 3.072h67.593a3.072 3.072 0 0 0 3.072-3.072v-83.572l21.704-33.029a3.072 3.072 0 0 0 .505-1.686v-60.533a30.503 30.503 0 0 0-21.009-28.99z"/><path d="M86.737 81.472c-.786-.856-1.935-1.287-3.098-1.287h-8.67c-1.163 0-2.312.431-3.098 1.287a4.023 4.023 0 0 0-.53 4.738l4.635 6.987-2.17 18.302 4.272 11.365c.417 1.143 2.033 1.143 2.45 0l4.272-11.365-2.17-18.302 4.635-6.987a4.018 4.018 0 0 0-.528-4.738z"/></svg>